<svg width="760" height="760" viewBox="0 0 760 760" fill="none" xmlns="http://www.w3.org/2000/svg">
<rect width="760.004" height="760.004" fill="black"/>
<path d="M649.693 342.945L591.141 389.652L601.564 518.021L600.644 522.042L599.725 524.207L597.579 529.466L594.82 534.105L589.302 540.292L578.266 551.118C572.441 556.067 563.858 569.986 553.741 556.686L510.823 454.301L475.569 482.14L477.409 537.199L476.182 541.22L473.423 546.787L467.599 554.211C461.774 561.016 449.206 573.08 441.848 562.253L416.097 494.822L359.384 464.199C357.239 463.271 346.817 457.085 351.415 447.186L359.691 439.453L368.274 432.648L371.033 431.411L373.485 430.174L376.857 429.246L379.923 428.627L382.989 428.318H387.894L390.039 428.627L435.716 436.36L467.598 404.191L385.747 356.246C382.988 354.7 363.369 348.513 370.114 334.285L398.01 310.158L401.996 307.993L406.287 306.446L410.579 305.209H417.324L422.842 305.827L541.172 331.191L581.025 291.599C588.075 284.794 602.79 262.522 634.059 271.183C654.291 275.513 680.103 313.25 649.693 342.945Z" fill="#689985"/>
<path d="M525.537 276.752L474.343 265.925C436.024 256.645 396.478 240.87 351.721 282.319C327.196 300.569 293.475 345.42 343.137 389.034C304.818 408.831 289.49 453.373 306.044 479.665L218.061 552.355C147.86 494.512 59.8794 362.742 170.238 196.329C224.192 113.121 433.877 15.3758 577.958 208.083L588.688 225.405L586.542 226.023L580.104 228.807L573.36 232.519L566.922 236.849L560.791 241.489L551.594 250.769L547.302 254.79L525.537 276.752Z" fill="#689985"/>
<path d="M101.877 510.288L106.782 497.606L126.095 528.228L135.292 540.601L150.313 557.614L153.379 568.44C158.897 591.02 205.493 620.715 242.587 596.279L344.67 512.762L376.552 530.084L388.201 561.325L282.439 642.367L274.775 647.316L265.885 652.575C218.062 672.99 140.197 672.062 104.33 589.474L99.4249 575.864L97.279 564.109L96.3594 552.974V538.745L98.1987 524.516L101.877 510.288Z" fill="#689985"/>
</svg>
